PathFileType	4	(X/Y/Z)	Walk9.trc
DataRate	CameraRate	NumFrames	NumMarkers	Units	OrigDataRate	OrigDataStartFrame	OrigNumFrames
200.000000	200.000000	8	59	mm	200.000000	453	587
Frame#	Times		LFHD		RFHD		CLAV		STRN		LASI		RASI		RACR1		RUA1		RElbow		RFA1		RWRR		RWRU		RCAR		LACR1		LUA1		LElbow		LFA1		LWRR		RTH3		RTH2		RTB1		RTB2		RTB4		LTH1		LTH3		LTH2		LTB1		LTB2		LTB4		LMT1		LTB3		LCAR		LLFC		LWRU		LMFC		LToe		LMT5		RTB3		RMFC		RMMAL		RElbowM		LTH4		RTH4		RMT1		RLFC		RToe		LBHD		RCAL		RTH1		RBack		RPSI		C7		T10		LPSI		LElbowM		LMMAL		LLMAL		RBHD		LCAL
			X1	Y1	Z1	X2	Y2	Z2	X3	Y3	Z3	X4	Y4	Z4	X5	Y5	Z5	X6	Y6	Z6	X7	Y7	Z7	X8	Y8	Z8	X9	Y9	Z9	X10	Y10	Z10	X11	Y11	Z11	X12	Y12	Z12	X13	Y13	Z13	X14	Y14	Z14	X15	Y15	Z15	X16	Y16	Z16	X17	Y17	Z17	X18	Y18	Z18	X19	Y19	Z19	X20	Y20	Z20	X21	Y21	Z21	X22	Y22	Z22	X23	Y23	Z23	X24	Y24	Z24	X25	Y25	Z25	X26	Y26	Z26	X27	Y27	Z27	X28	Y28	Z28	X29	Y29	Z29	X30	Y30	Z30	X31	Y31	Z31	X32	Y32	Z32	X33	Y33	Z33	X34	Y34	Z34	X35	Y35	Z35	X36	Y36	Z36	X37	Y37	Z37	X38	Y38	Z38	X39	Y39	Z39	X40	Y40	Z40	X41	Y41	Z41	X42	Y42	Z42	X43	Y43	Z43	X44	Y44	Z44	X45	Y45	Z45	X46	Y46	Z46	X47	Y47	Z47	X48	Y48	Z48	X49	Y49	Z49	X50	Y50	Z50	X51	Y51	Z51	X52	Y52	Z52	X53	Y53	Z53	X54	Y54	Z54	X55	Y55	Z55	X56	Y56	Z56	X57	Y57	Z57	X58	Y58	Z58	X59	Y59	Z59

453	2.265	900.81	1640.4	-32.893	902.19	1645.8	65.889	885.72	1390.9	31.112	947.06	1231.8	27.232	829.6	976.86	-150.74	826.95	983.48	217.2	768.59	1474.7	201.59	759.96	1307.3	321.44	794.71	1164.6	377.22	864.92	1030	381.56	913.55	925.94	304.37	911.82	926.18	386.59	964.13	855.33	347.02	772.13	1466.2	-151.03	700.05	1307.9	-239.93	644.71	1152.7	-287.58	633.25	1012.7	-301.88	661.01	880.33	-248.6	690.67	599.59	199.42	754.4	682.29	199.41	678.52	358.87	99.323	631.68	277.58	147.64	645.68	278.88	87.788	819.14	753.79	-180.54	887.17	597.96	-155.03	904.2	701.71	-152.32	1013.4	437.44	-107.92	1009.9	338.89	-142.8	1045.6	359.95	-95.891	1221.8	129.85	-91.667	1071.7	277.16	-84.426	643.04	791.09	-277.56	897.6	517.47	-150.73	606.04	873.96	-299.63	933.95	519.79	3.1751	1255.9	148.86	-139.89	1169.5	79.03	-150.74	614.55	199.51	76.107	638.68	499.49	29.454	532.91	84.531	12.759	751.46	1083.4	282.92	852.12	676.6	-169.57	697.89	683.31	215.63	655.14	26.025	41.762	653.96	485.44	183.53	704.82	28.448	74.662	743.47	1577.3	-41.12	435.71	55.348	54.809	704.34	768.03	233.48	627.27	1354.5	144.15	570.68	1032.9	54.569	694.53	1477.3	31.32	622.6	1162.7	19.24	585.68	1027.5	-28.06	578.43	1112	-189.04	1092.9	118.65	-0.028322	1058	93.365	-77.545	760.31	1588.7	107.53	1040.2	45.732	-13.157
454	2.27	906.97	1639	-34.024	908.33	1644.6	64.75	892.04	1389.5	30.476	953.35	1230.4	26.982	836.27	975.07	-150.81	832.51	982.46	217.54	774.75	1473.6	200.65	766.58	1306.4	320.74	801.79	1164	376.74	872.64	1029.7	380.95	921.64	925.95	303.66	920.07	926.17	385.87	972.7	855.63	346.2	778.69	1464.8	-151.86	706.18	1306.6	-240.56	650.29	1151.5	-287.94	638.4	1011.6	-302.12	665.7	879.12	-248.68	694.11	598.88	199.33	758.45	681.15	199.49	680.65	358.07	99.312	633.14	277.11	147.56	647.26	278.3	87.763	825.64	752.28	-180.34	894.06	596.74	-154.27	910.86	700.55	-152.08	1021.4	437.05	-107.25	1018.6	338.38	-141.91	1054.3	359.84	-95.159	1232.5	131.38	-90.796	1081.1	277.27	-83.584	647.32	789.86	-277.49	904.82	516.2	-149.91	610.74	872.9	-299.68	941.37	519.08	3.9004	1266.4	150.61	-139.09	1180.6	79.837	-149.67	615.63	199.13	76.055	642.07	499.02	29.232	533.27	84.692	12.605	758.68	1082.5	282.54	858.78	675.23	-169.02	701.93	682.54	215.59	655.19	26.031	41.796	656.7	484.91	183.4	704.97	28.386	74.818	749.69	1575.7	-42.168	435.88	55.872	54.524	708.88	767.24	233.52	633.46	1353.3	143.2	576.92	1031.7	53.638	700.82	1475.9	30.357	628.83	1161.3	18.342	592.16	1026.2	-28.881	584.13	1111.1	-189.27	1103.9	119.07	1.1218	1069.1	93.313	-76.241	766.5	1587.5	106.46	1051.8	45.579	-11.697
455	2.275	913.14	1637.6	-35.201	914.49	1643.3	63.563	898.38	1388.1	29.801	959.68	1229	26.7	842.98	973.3	-150.87	838.15	981.44	217.85	780.94	1472.5	199.66	773.22	1305.6	320	808.86	1163.3	376.24	880.33	1029.5	380.32	929.67	925.95	302.93	928.27	926.15	385.15	981.2	855.92	345.36	785.25	1463.3	-152.72	712.34	1305.3	-241.22	655.93	1150.3	-288.33	643.64	1010.4	-302.38	670.49	877.87	-248.77	697.58	598.15	199.23	762.53	680	199.59	682.81	357.26	99.311	634.61	276.66	147.48	648.88	277.71	87.748	832.32	750.86	-180.15	901.15	595.61	-153.55	917.69	699.49	-151.81	1029.3	436.52	-106.54	1027.1	337.76	-140.98	1062.8	359.53	-94.351	1242.6	132.4	-89.731	1090.2	277.16	-82.646	651.75	788.6	-277.44	912.22	515	-149.13	615.55	871.8	-299.75	948.91	518.42	4.5854	1276.3	151.79	-138.07	1190.9	80.28	-148.46	616.72	198.76	76.014	645.52	498.53	29.01	533.63	84.878	12.457	765.87	1081.6	282.14	865.63	673.94	-168.51	706	681.76	215.56	655.24	26.039	41.83	659.49	484.39	183.27	705.12	28.327	74.97	755.92	1574.2	-43.26	436.05	56.431	54.244	713.45	766.43	233.56	639.69	1352.1	142.22	583.2	1030.5	52.75	707.12	1474.6	29.364	635.11	1159.9	17.475	598.67	1024.7	-29.659	589.89	1110.2	-189.53	1114.1	119.22	2.3678	1079.3	93.091	-74.882	772.71	1586.2	105.34	1062.5	45.3	-10.214
456	2.28	919.34	1636.2	-36.424	920.66	1642.1	62.332	904.75	1386.7	29.083	966.03	1227.6	26.386	849.75	971.54	-150.93	843.89	980.42	218.11	787.16	1471.5	198.64	779.87	1304.7	319.24	815.91	1162.7	375.71	887.96	1029.2	379.67	937.64	925.94	302.19	936.4	926.13	384.4	989.64	856.19	344.52	791.81	1461.8	-153.62	718.53	1304	-241.91	661.62	1149.1	-288.76	648.97	1009.2	-302.68	675.39	876.58	-248.88	701.08	597.42	199.13	766.64	678.85	199.69	685.01	356.45	99.319	636.08	276.21	147.4	650.53	277.13	87.74	839.18	749.52	-179.97	908.43	594.58	-152.88	924.7	698.51	-151.51	1037.3	435.87	-105.78	1035.4	337.03	-140.01	1071.1	359.04	-93.464	1251.8	132.89	-88.458	1098.8	276.81	-81.609	656.32	787.31	-277.41	919.78	513.88	-148.42	620.49	870.64	-299.85	956.55	517.78	5.2283	1285.5	152.39	-136.81	1200.4	80.346	-147.1	617.83	198.4	75.982	649.03	498.03	28.79	534	85.091	12.315	773.04	1080.7	281.73	872.69	672.75	-168.04	710.11	680.98	215.54	655.29	26.05	41.865	662.31	483.86	183.14	705.28	28.27	75.118	762.17	1572.6	-44.395	436.23	57.03	53.971	718.05	765.61	233.6	645.95	1350.8	141.23	589.53	1029.2	51.913	713.44	1473.2	28.34	641.44	1158.4	16.643	605.21	1023.3	-30.387	595.7	1109.2	-189.85	1123.5	119.11	3.7097	1088.7	92.684	-73.472	778.94	1584.9	104.19	1072.2	44.878	-8.7151
457	2.285	925.55	1634.7	-37.693	926.85	1640.8	61.055	911.15	1385.4	28.321	972.41	1226.1	26.037	856.56	969.8	-151	849.71	979.4	218.31	793.43	1470.4	197.59	786.55	1303.8	318.46	822.94	1162.1	375.16	895.56	1028.9	379	945.55	925.91	301.44	944.47	926.09	383.65	997.99	856.45	343.66	798.36	1460.3	-154.55	724.74	1302.6	-242.63	667.37	1147.8	-289.22	654.39	1007.9	-303	680.4	875.26	-249	704.62	596.69	199.03	770.79	677.68	199.81	687.24	355.64	99.335	637.56	275.79	147.32	652.2	276.56	87.738	846.23	748.29	-179.8	915.9	593.63	-152.26	931.89	697.62	-151.17	1045.2	435.09	-104.97	1043.6	336.19	-139.01	1079.2	358.37	-92.497	1260.4	132.84	-86.969	1107.1	276.23	-80.475	661.04	785.98	-277.4	927.5	512.83	-147.78	625.56	869.44	-299.98	964.29	517.15	5.8283	1294.1	152.4	-135.31	1209.2	80.028	-145.58	618.96	198.07	75.957	652.6	497.52	28.572	534.37	85.334	12.18	780.19	1079.8	281.29	879.95	671.65	-167.6	714.25	680.18	215.52	655.35	26.064	41.901	665.18	483.34	183.02	705.45	28.214	75.261	768.44	1571	-45.573	436.42	57.676	53.708	722.7	764.78	233.63	652.25	1349.6	140.22	595.9	1027.9	51.129	719.77	1471.8	27.285	647.82	1157	15.848	611.79	1021.8	-31.063	601.55	1108.1	-190.2	1132.1	118.71	5.1441	1097.4	92.087	-72.018	785.18	1583.6	102.99	1081	44.309	-7.2104
458	2.29	931.78	1633.3	-39.006	933.06	1639.6	59.734	917.57	1384	27.512	978.82	1224.8	25.652	863.42	968.08	-151.08	855.62	978.37	218.45	799.72	1469.4	196.49	793.25	1303	317.65	829.96	1161.4	374.59	903.1	1028.7	378.31	953.4	925.88	300.67	952.47	926.04	382.87	1006.3	856.69	342.8	804.92	1458.8	-155.52	730.98	1301.2	-243.38	673.17	1146.5	-289.71	659.89	1006.6	-303.36	685.52	873.89	-249.15	708.21	595.95	198.93	774.97	676.51	199.92	689.51	354.83	99.354	639.07	275.38	147.25	653.92	275.99	87.74	853.47	747.14	-179.65	923.53	592.76	-151.7	939.25	696.81	-150.8	1053.1	434.18	-104.11	1051.6	335.23	-137.98	1087.1	357.51	-91.452	1268.3	132.26	-85.265	1115	275.41	-79.247	665.9	784.61	-277.41	935.35	511.85	-147.2	630.75	868.18	-300.14	972.08	516.53	6.3849	1302	151.83	-133.56	1217.3	79.327	-143.9	620.11	197.74	75.938	656.23	497	28.355	534.76	85.611	12.052	787.3	1078.9	280.83	887.41	670.64	-167.21	718.45	679.37	215.5	655.41	26.081	41.939	668.1	482.81	182.89	705.62	28.157	75.398	774.72	1569.5	-46.795	436.61	58.375	53.454	727.38	763.94	233.65	658.57	1348.4	139.2	602.31	1026.7	50.4	726.11	1470.4	26.197	654.24	1155.5	15.091	618.4	1020.3	-31.684	607.45	1107	-190.61	1139.9	118.03	6.6635	1105.3	91.3	-70.531	791.45	1582.3	101.74	1088.9	43.592	-5.7106
459	2.295	938.03	1631.9	-40.363	939.29	1638.3	58.369	924.02	1382.6	26.656	985.26	1223.4	25.231	870.34	966.39	-151.19	861.62	977.34	218.53	806.05	1468.3	195.36	799.97	1302.2	316.81	836.97	1160.8	373.99	910.6	1028.4	377.61	961.18	925.83	299.89	960.41	925.97	382.09	1014.5	856.91	341.92	811.47	1457.2	-156.53	737.24	1299.7	-244.17	679.03	1145.2	-290.24	665.47	1005.2	-303.75	690.75	872.5	-249.33	711.86	595.2	198.83	779.21	675.33	200.04	691.83	354.02	99.374	640.6	274.99	147.18	655.67	275.43	87.744	860.9	746.08	-179.51	931.31	591.95	-151.18	946.77	696.04	-150.41	1060.9	433.15	-103.2	1059.4	334.16	-136.91	1094.8	356.47	-90.336	1275.5	131.15	-83.356	1122.6	274.37	-77.935	670.92	783.2	-277.44	943.31	510.93	-146.69	636.07	866.87	-300.33	979.91	515.9	6.8985	1309.4	150.7	-131.56	1224.6	78.253	-142.08	621.28	197.44	75.922	659.92	496.47	28.14	535.16	85.924	11.932	794.37	1078.1	280.36	895.06	669.7	-166.86	722.69	678.56	215.48	655.47	26.102	41.978	671.08	482.29	182.75	705.79	28.099	75.53	781.02	1567.9	-48.06	436.81	59.136	53.213	732.11	763.08	233.66	664.92	1347.1	138.16	608.76	1025.4	49.725	732.46	1469	25.076	660.73	1154	14.373	625.05	1018.8	-32.248	613.4	1105.8	-191.06	1147	117.07	8.2567	1112.5	90.33	-69.023	797.74	1580.9	100.46	1095.9	42.738	-4.2281
460	2.3	944.3	1630.5	-41.765	945.54	1637.1	56.963	930.49	1381.2	25.75	991.74	1222	24.774	877.31	964.72	-151.32	867.72	976.31	218.54	812.41	1467.3	194.19	806.7	1301.4	315.94	843.96	1160.2	373.36	918.06	1028.1	376.89	968.9	925.77	299.1	968.27	925.9	381.29	1022.6	857.11	341.04	818.02	1455.6	-157.58	743.51	1298.2	-244.98	684.95	1143.8	-290.81	671.15	1003.8	-304.17	696.11	871.06	-249.53	715.58	594.45	198.73	783.49	674.15	200.16	694.19	353.22	99.392	642.17	274.63	147.12	657.45	274.88	87.745	868.5	745.1	-179.38	939.21	591.19	-150.72	954.45	695.33	-149.99	1068.7	432.01	-102.25	1067	332.99	-135.83	1102.2	355.26	-89.156	1282.1	129.54	-81.261	1129.7	273.12	-76.551	676.08	781.75	-277.5	951.36	510.05	-146.25	641.51	865.5	-300.56	987.73	515.23	7.3693	1316.3	149.02	-129.33	1231.3	76.819	-140.13	622.48	197.16	75.905	663.68	495.94	27.926	535.57	86.279	11.819	801.41	1077.3	279.86	902.86	668.83	-166.56	726.98	677.75	215.46	655.53	26.125	42.019	674.12	481.77	182.61	705.97	28.039	75.655	787.34	1566.3	-49.367	437.02	59.966	52.983	736.89	762.22	233.66	671.31	1345.9	137.11	615.26	1024.1	49.101	738.83	1467.6	23.921	667.26	1152.5	13.695	631.74	1017.3	-32.755	619.39	1104.6	-191.55	1153.3	115.85	9.908	1119.1	89.191	-67.511	804.05	1579.6	99.129	1102	41.765	-2.7763
